#!OML:ASF E:/inclinewalkrobotboard/Project1/Captureday1/Session1/subject1.ASF
:FULLY-SPECIFIED
:DEGREES
301
root 0 0 0 15.997658365883169 42.05216682914369 -0.6432818712406814
lowerback -10.952933918534189 -4.529996573184576 -4.48802065039091
upperback -11.764522901710263 -5.635802714786786 8.95636638837026
thorax -5.4204314840452215 -2.1329094297280218 12.202902139278379
lowerneck -2.9929217655418157 -9.822753582563667 -8.496940219890657
upperneck 32.76794210343806 -12.328523204464071 0.2344276749452323
head 11.903762069704 -6.379258318155055 -0.12162744866418307
rclavicle -4.061996518354593E-15 3.985611607227257E-15
rhumerus 164.03937403928538 5.961217458199027 -192.97640349565648
rradius 19.036927871120284
rwrist 79.27937971180921
rhand -17.11481307485146 8.06942418304369
rfingers 7.125020000000008
rthumb 9.091307877948344 -21.794377256927262
lclavicle 1.855500939541155E-15 -5.667197409080474E-15
lhumerus 84.23002479854222 31.815310678587203 16.727212562886592
lradius 52.04347708808773
lwrist -16.538413558784285
lhand -6.765834569675657 11.157056040507278
lfingers 7.125019999999995
lthumb 19.049946017748955 39.80951443929152
rfemur 160.574746821159 -215.7307888226444 -186.59582750230683
rtibia 64.92789569618667
rfoot -51.156396960945166 -24.60275850171264
rtoes 58.658178053810886
lfemur -88.53555272542893 22.70801438132225 -52.49940123970488
ltibia 75.0667087397317
lfoot -15.575873958175098 33.15126091527681
ltoes 10.322491907052525
302
root 0 0 0 16.040824941175977 42.06648923824376 -0.6664191211505166
lowerback -10.961926613394299 -4.522081517085363 -4.481347271727175
upperback -11.769302783040981 -5.624945658026697 8.954025764591087
thorax -5.4201206985810835 -2.1281953518959993 12.196046628824213
lowerneck -2.995715176584218 -9.823680160497785 -8.494005527236274
upperneck 32.769141454627565 -12.329571308932257 0.22646627371162786
head 11.904266463964076 -6.379895493348309 -0.12428619189141488
rclavicle -4.167504884835331E-15 3.9609220298895296E-15
rhumerus 163.8891750146929 5.902849896056495 -193.23046890418297
rradius 18.65009259485496
rwrist 79.96005151351088
rhand -17.129253689549806 8.032093189065167
rfingers 7.125020000000009
rthumb 9.075060145959908 -21.842614248897476
lclavicle 1.731333426246544E-15 -5.606721285796738E-15
lhumerus 84.57348413545846 31.977519078588145 16.670154619101655
lradius 51.805594044085694
lwrist -16.622400501449253
lhand -6.935119591974531 11.251818424699689
lfingers 7.125019999999994
lthumb 18.887846488815814 39.93535938573078
rfemur 160.13049186256163 -215.35122266787596 -186.41737488432227
rtibia 64.59480174557723
rfoot -51.39887828373027 -24.634544770097545
rtoes 59.15450546026514
lfemur -88.54503536594866 22.76120396489152 -52.23663570762184
ltibia 75.30032546926763
lfoot -15.97063959733935 33.01844548976382
ltoes 10.461929841119051
303
root 0 0 0 16.070059021522862 42.075577176740595 -0.6805391923072754
lowerback -10.967056618005039 -4.515834104946132 -4.477500382975716
upperback -11.771810274589313 -5.616346486889148 8.951243605162686
thorax -5.419854562408156 -2.1242609115810227 12.190393968246038
lowerneck -2.9983942680394833 -9.823944699964601 -8.490746358400216
upperneck 32.77047187968303 -12.329732917167828 0.21937149822404756
head 11.904765200076074 -6.380102704853343 -0.1266763662601771
rclavicle -4.252348051106035E-15 3.938451475841765E-15
rhumerus 163.7469027624689 5.85092788930579 -193.42561940766456
rradius 18.3230752054493
rwrist 80.52591676608375
rhand -17.13498457219833 7.997765541893138
rfingers 7.12502000000001
rthumb 9.067527580113182 -21.885047088910262
lclavicle 1.6446090744802869E-15 -5.538177297583582E-15
lhumerus 84.81380965244533 32.11331910240769 16.631296117147475
lradius 51.585418069583895
lwrist -16.71212487268587
lhand -7.104889311750999 11.333614105657652
lfingers 7.125019999999993
lthumb 18.725094566121605 40.047141267699786
rfemur 159.73407712291504 -215.01240326899705 -186.2496684585324
rtibia 64.2926214067842
rfoot -51.64836107129098 -24.64855139384868
rtoes 59.56597622543691
lfemur -88.55132357388236 22.7915752277707 -52.04989001206583
ltibia 75.46677722578356
lfoot -16.276997062348645 32.92898452407609
ltoes 10.570581449948246
304
root 0 0 0 16.0869877643658 42.08396020601431 -0.6875671118325464
lowerback -10.968354777934646 -4.511048080431182 -4.475583214986259
upperback -11.772239733658376 -5.6096917116470415 8.948330351600669
thorax -5.4197010660736336 -2.1210413068284693 12.185741673206469
lowerneck -3.0006922249669765 -9.823855389753197 -8.487396663939464
upperneck 32.77194632490825 -12.329295974687653 0.2126909948443112
head 11.905244315670464 -6.380062070117045 -0.12894899494959922
rclavicle -4.318866954141244E-15 3.9202318653143325E-15
rhumerus 163.61414192807683 5.806193817716505 -193.5746761228736
rradius 18.049193210383258
rwrist 80.99520798867697
rhand -17.135645460325737 7.967800427454241
rfingers 7.12502000000001
rthumb 9.065196836596881 -21.92103639676622
lclavicle 1.5889864837175583E-15 -5.465015800776136E-15
lhumerus 84.97857600383038 32.22609585617511 16.604882294203215
lradius 51.383413036667804
lwrist -16.802278987869517
lhand -7.268249102184445 11.405037939270112
lfingers 7.125019999999991
lthumb 18.56837508571643 40.14664337610938
rfemur 159.38327859103845 -214.71265955030526 -186.09442041791664
rtibia 64.01503357494852
rfoot -51.91249532958899 -24.64106590387847
rtoes 59.90256848904917
lfemur -88.55693072378702 22.80774838515449 -51.92218503605559
ltibia 75.5845505377974
lfoot -16.496020576893805 32.869061076977275
ltoes 10.649296303318277
